# xmcd
#
# Track frame offsets: 
#        150
#        20879
#        37666
#        52507
#        73162
#        94254
#        117362
#        145841
#        172648
#        189413
#        221182
#
# Disc length: 3222 seconds
#
# Revision: 0
# Processed by: cddbd v1.5.2PL0 Copyright (c) Steve Scherf et al.
# Submitted via: ExactAudioCopy v1.0b1
#
DISCID=920c940b
DTITLE=Tony 'WingMan' Black - Justify Your Soul
DYEAR=2014
DGENRE=Blues
TTITLE0=Too Much Month At the End of the Money
TTITLE1=Nobody's Fault But Mine
TTITLE2=Something You've Got
TTITLE3=Black Water Rising
TTITLE4=Open The Gate
TTITLE5=End Of The Line
TTITLE6=Let's Go
TTITLE7=As If
TTITLE8=Yes I Do
TTITLE9=Three Good Meals A Day
TTITLE10=Justify Your Soul
EXTD=
EXTT0=
EXTT1=
EXTT2=
EXTT3=
EXTT4=
EXTT5=
EXTT6=
EXTT7=
EXTT8=
EXTT9=
EXTT10=
PLAYORDER=
